Coordinates
version=1
nRows=10
nColumns=40
inDegrees=yes

Units are S.I. units (second, meters, Newtons, ...)
Angles are in degrees.

endheader
time	pelvis_tilt	pelvis_list	pelvis_rotation	pelvis_tx	pelvis_ty	pelvis_tz	hip_flexion_r	hip_adduction_r	hip_rotation_r	knee_angle_r	knee_angle_r_beta	ankle_angle_r	subtalar_angle_r	mtp_angle_r	hip_flexion_l	hip_adduction_l	hip_rotation_l	knee_angle_l	knee_angle_l_beta	ankle_angle_l	subtalar_angle_l	mtp_angle_l	lumbar_extension	lumbar_bending	lumbar_rotation	arm_flex_r	arm_add_r	arm_rot_r	elbow_flex_r	pro_sup_r	wrist_flex_r	wrist_dev_r	arm_flex_l	arm_add_l	arm_rot_l	elbow_flex_l	pro_sup_l	wrist_flex_l	wrist_dev_l
      4.85442857	     -7.99139129	     -5.25783720	      0.16884093	      1.02766424	      0.93572431	      0.41108165	     39.12791296	     -6.86045493	     -6.84675620	     63.71793203	     63.71793203	     -1.27061310	     -8.13583754	     -3.53486569	     14.64691419	     -5.90594806	    -10.32149401	     21.61331558	     21.61331558	     14.89635845	     -4.00473422	      0.60852546	    -12.74940062	      6.04371669	      2.27811792	      1.72289338	    -13.55278768	     -5.01661827	     31.12493588	     46.64534131	      0.00000000	      0.00000000	     15.83337212	    -17.54777146	     -3.33419148	     83.06440289	     47.59064028	      0.00000000	      0.00000000
      4.86635714	     -8.09767928	     -5.23108059	      0.21246476	      1.02715964	      0.93587712	      0.41139899	     39.73378096	     -6.61639951	     -6.90864874	     60.78009057	     60.78009057	     -1.03700751	     -7.95543643	     -3.27817340	     13.88336593	     -5.88139565	    -10.51663422	     21.00130020	     21.00130020	     15.05792123	     -3.47731162	      0.43743700	    -12.79138386	      5.99622887	      2.26776869	     -0.01132907	    -13.55121937	     -4.64905621	     29.97665334	     46.64602577	      0.00000000	      0.00000000	     17.34501179	    -17.63692764	     -3.49702640	     84.51137815	     47.64271566	      0.00000000	      0.00000000
      4.87828571	     -8.39420444	     -5.13498751	      0.28199615	      1.02662079	      0.93543513	      0.41178380	     40.38397465	     -6.49630603	     -7.07067618	     57.52423591	     57.52423591	     -0.78705006	     -7.73756537	     -2.93792064	     13.43403691	     -5.77938589	    -10.67608825	     20.58589082	     20.58589082	     15.26285158	     -3.16389881	      0.29299092	    -12.54218501	      5.89529585	      1.75461839	     -1.60654416	    -13.35521239	     -4.48463746	     29.27838458	     46.64697344	      0.00000000	      0.00000000	     18.71934681	    -18.27591138	     -3.77804298	     85.34659992	     47.68409866	      0.00000000	      0.00000000
      4.89021429	     -8.36379663	     -5.08180714	      0.28600350	      1.02664390	      0.93544610	      0.41239534	     40.37067242	     -6.18547340	     -7.15231336	     53.73933989	     53.73933989	     -0.64404948	     -7.62086326	     -2.75683119	     12.28837084	     -5.76450574	    -11.26336958	     19.62996921	     19.62996921	     15.42097735	     -2.18928914	     -0.16716648	    -12.70129125	      5.75168013	      2.11453240	     -3.45435464	    -13.40853193	     -3.83103853	     28.10056424	     46.62495605	      0.00000000	      0.00000000	     20.15480256	    -18.25087559	     -3.26218731	     87.38515108	     47.70679658	      0.00000000	      0.00000000
      4.90214286	     -8.49941362	     -5.04054051	      0.32543885	      1.02662739	      0.93485867	      0.41305642	     40.29501468	     -5.88544943	     -7.35783486	     49.54180596	     49.54180596	     -0.90201284	     -7.58532481	     -3.64197736	     11.40186850	     -5.75509535	    -11.72192340	     18.78594952	     18.78594952	     15.25037539	     -1.31303235	     -1.63119073	    -12.63059433	      5.66535006	      2.05719463	     -5.29614773	    -13.55876983	     -1.81922256	     27.87946196	     46.43695014	      0.00000000	      0.00000000	     21.28858861	    -19.04688209	     -2.20412684	     89.03880717	     47.73177752	      0.00000000	      0.00000000
      4.91407143	     -8.68649492	     -4.94383758	      0.40706451	      1.02677283	      0.93400726	      0.41371914	     40.08009617	     -5.67441273	     -7.70296342	     45.13466142	     45.13466142	     -0.77459345	     -7.15425783	     -3.02281657	     10.56504007	     -5.59707964	    -11.83103999	     17.94627512	     17.94627512	     15.51132813	     -0.92389568	     -1.72210920	    -12.40663849	      5.56360059	      1.78683705	     -6.96141713	    -13.49292964	     -1.63921382	     27.48448977	     46.42185940	      0.00000000	      0.00000000	     22.28558497	    -19.25532683	     -2.46721569	     90.00183593	     47.77575638	      0.00000000	      0.00000000
      4.92600000	     -8.70337698	     -4.76559126	      0.45253101	      1.02724326	      0.93311129	      0.41452365	     39.47036082	     -5.46448836	     -8.03406137	     40.52041622	     40.52041622	     -0.64881414	     -6.53385322	     -2.45581670	      9.38176999	     -5.36424468	    -12.15000463	     16.86241102	     16.86241102	     15.67517900	     -0.21015780	     -2.13984427	    -12.45402708	      5.32001602	      1.81736285	     -8.89098873	    -13.47614805	     -1.32852523	     27.63187365	     46.36657238	      0.00000000	      0.00000000	     23.20580301	    -19.38420765	     -2.44145771	     91.64312529	     47.82423856	      0.00000000	      0.00000000
      4.93792857	     -8.82173505	     -4.69042988	      0.57883255	      1.02782316	      0.93173350	      0.41544123	     38.73870688	     -5.16706404	     -8.60715871	     35.75303050	     35.75303050	     -0.60166267	     -5.79792707	     -1.54049644	      8.45585087	     -5.25609000	    -12.25912519	     16.04747260	     16.04747260	     15.95292113	      0.27455908	     -2.47196928	    -12.26571147	      5.22850640	      1.53911561	    -10.55751591	    -13.46470213	     -1.24586996	     27.60261623	     46.34232368	      0.00000000	      0.00000000	     23.86505471	    -19.66494998	     -2.47933868	     92.66168672	     47.85844790	      0.00000000	      0.00000000
      4.94985714	     -9.07042628	     -4.41313025	      0.68136360	      1.02844600	      0.92971904	      0.41654514	     38.12061846	     -5.00578177	     -9.11100324	     31.20335618	     31.20335618	     -0.65311296	     -5.00532246	     -0.49183718	      7.75962958	     -4.96146733	    -12.37538002	     15.43625626	     15.43625626	     16.30787532	      0.66378550	     -2.78533827	    -11.86606048	      4.83360493	      1.22919849	    -12.08090686	    -13.30462185	     -1.23462506	     27.45653451	     46.33130013	      0.00000000	      0.00000000	     24.55787473	    -20.06485205	     -2.62959608	     93.49287231	     47.89207079	      0.00000000	      0.00000000
      4.96178571	     -8.85693331	     -4.39250410	      0.84101418	      1.02979029	      0.92813959	      0.41763528	     36.90987885	     -4.65853291	    -10.03505608	     27.09476148	     27.09476148	      0.44135482	     -3.34304344	      3.56029289	      6.24424406	     -4.90767263	    -12.57663713	     14.21258555	     14.21258555	     15.91686187	      1.23010932	     -4.95785715	    -12.09061679	      4.86212458	      1.30420054	    -14.75316424	    -13.55889547	     -1.68445987	     30.24935284	     46.19620604	      0.00000000	      0.00000000	     24.81181650	    -20.21479469	     -2.27971945	     95.41282863	     47.97662182	      0.00000000	      0.00000000
